<?xml version="1.0" encoding="UTF-8" standalone="no"?> <svg id="Layer_1" data-name="Layer 1" xmlns="http://www.w3.org/2000/svg" viewBox="0 0 512 512"><defs><style>.cls-1{fill:#ffd38d;}.cls-2{fill:#ed7c69;}.cls-3{fill:#6d4135;}</style></defs><title>calendar-filled</title><rect class="cls-1" x="21.33" y="149.33" width="469.33" height="341.33"/><rect class="cls-2" x="21.33" y="42.67" width="469.33" height="106.67"/><path class="cls-3" d="M490.67,21.33H384a21.33,21.33,0,1,0-42.67,0H170.67a21.33,21.33,0,1,0-42.67,0H21.33A21.33,21.33,0,0,0,0,42.67v448A21.33,21.33,0,0,0,21.33,512H490.67A21.33,21.33,0,0,0,512,490.67v-448A21.33,21.33,0,0,0,490.67,21.33ZM42.67,64H128a21.33,21.33,0,1,0,42.67,0H341.33A21.33,21.33,0,1,0,384,64h85.33v64H42.67ZM469.33,469.33H42.67V170.67H469.33Z"/><path class="cls-3" d="M227.67,362.67H192a21.33,21.33,0,0,0,0,42.67h35.67a49.72,49.72,0,0,0,49.67-49.67V284.33a49.72,49.72,0,0,0-49.67-49.67H192a21.33,21.33,0,0,0,0,42.67h35.67a7,7,0,0,1,7,7v14.33H213.33a21.33,21.33,0,0,0,0,42.67h21.33v14.33A7,7,0,0,1,227.67,362.67Z"/><path class="cls-3" d="M320,405.33A21.33,21.33,0,0,0,341.33,384V256a21.33,21.33,0,1,0-42.67,0V384A21.33,21.33,0,0,0,320,405.33Z"/></svg>